<?xml version="1.0" encoding="UTF-8"?>
<svg version="1.1" xmlns="http://www.w3.org/2000/svg" width="512" height="512">
<path d="M0 0 C0.99868909 -0.00297112 1.99737819 -0.00594224 3.02633059 -0.0090034 C6.35908455 -0.01764635 9.69180239 -0.01919493 13.02456665 -0.02069092 C15.42015662 -0.02532233 17.81574585 -0.03034742 20.21133423 -0.03573608 C26.71186048 -0.04883371 33.21237985 -0.05533771 39.71291685 -0.05974674 C43.78023756 -0.06251761 47.84755591 -0.06675656 51.91487503 -0.07125092 C63.19913521 -0.08343966 74.48339352 -0.09373856 85.76766014 -0.09712601 C86.48888342 -0.09734557 87.2101067 -0.09756514 87.95318524 -0.09779136 C88.67603937 -0.09800964 89.39889351 -0.09822791 90.14365232 -0.09845281 C91.60818887 -0.09889626 93.07272542 -0.09934282 94.53726196 -0.09979248 C95.2637076 -0.10001391 95.99015323 -0.10023534 96.73861237 -0.10046348 C108.48858398 -0.10440477 120.23849332 -0.12184006 131.98844092 -0.145152 C144.08217627 -0.16895013 156.17588049 -0.18133175 168.26963961 -0.18249393 C175.04751456 -0.18340615 181.82530843 -0.18904286 188.60316086 -0.20731354 C194.98736375 -0.22388814 201.37141365 -0.2259044 207.75563049 -0.21717453 C210.08628883 -0.21640908 212.41695571 -0.22068117 214.74759293 -0.23063278 C258.07962913 -0.40465983 296.27158717 14.14096113 327.37026978 44.66778564 C335.82133285 53.25263113 342.72223089 62.77794547 348.81997681 73.14044189 C349.16657349 73.72519287 349.51317017 74.30994385 349.87026978 74.91241455 C362.01010239 95.68527045 368.98307225 119.22610484 368.9604187 143.32046509 C368.96487538 144.81849873 368.96487538 144.81849873 368.9694221 146.34679568 C368.97806505 149.67954963 368.97961363 153.01226748 368.98110962 156.34503174 C368.98574103 158.7406217 368.99076612 161.13621093 368.99615479 163.53179932 C369.00925242 170.03232557 369.01575642 176.53284494 369.02016544 183.03338194 C369.02293631 187.10070264 369.02717527 191.168021 369.03166962 195.23534012 C369.04385836 206.5196003 369.05415726 217.80385861 369.05754471 229.08812523 C369.05776427 229.80934851 369.05798384 230.53057179 369.05821006 231.27365033 C369.05842834 231.99650446 369.05864662 232.7193586 369.05887151 233.46411741 C369.05931496 234.92865396 369.05976152 236.3931905 369.06021118 237.85772705 C369.06043261 238.58417268 369.06065404 239.31061832 369.06088218 240.05907746 C369.06482347 251.80904907 369.08225876 263.55895841 369.1055707 275.308906 C369.12936883 287.40264135 369.14175045 299.49634558 369.14291263 311.5901047 C369.14382485 318.36797965 369.14946156 325.14577352 369.16773224 331.92362595 C369.18430684 338.30782883 369.1863231 344.69187874 369.17759323 351.07609558 C369.17682778 353.40675392 369.18109987 355.7374208 369.19105148 358.06805801 C369.36507853 401.40009422 354.81945758 439.59205226 324.29263306 470.69073486 C315.70778757 479.14179794 306.18247323 486.04269597 295.81997681 492.14044189 C295.23522583 492.48703857 294.65047485 492.83363525 294.04800415 493.19073486 C273.27514825 505.33056748 249.73431386 512.30353734 225.63995361 512.28088379 C224.64126452 512.28385491 223.64257542 512.28682603 222.61362302 512.28988719 C219.28086907 512.29853014 215.94815122 512.30007872 212.61538696 512.30157471 C210.219797 512.30620611 207.82420777 512.31123121 205.42861938 512.31661987 C198.92809313 512.3297175 192.42757376 512.3362215 185.92703676 512.34063053 C181.85971606 512.3434014 177.7923977 512.34764035 173.72507858 512.3521347 C162.4408184 512.36432345 151.15656009 512.37462235 139.87229347 512.3780098 C138.79045855 512.37833915 138.79045855 512.37833915 137.68676838 512.37867515 C136.96391424 512.37889343 136.2410601 512.3791117 135.49630129 512.3793366 C134.03176474 512.37978005 132.5672282 512.38022661 131.10269165 512.38067627 C130.37624602 512.3808977 129.64980038 512.38111913 128.90134124 512.38134727 C117.15136963 512.38528855 105.40146029 512.40272385 93.6515127 512.42603579 C81.55777735 512.44983392 69.46407312 512.46221554 57.370314 512.46337771 C50.59243905 512.46428994 43.81464518 512.46992664 37.03679276 512.48819733 C30.65258987 512.50477193 24.26853996 512.50678819 17.88432312 512.49805832 C15.55366478 512.49729287 13.2229979 512.50156496 10.89236069 512.51151657 C-32.43967552 512.68554362 -70.63163355 498.13992266 -101.73031616 467.61309814 C-110.18137924 459.02825266 -117.08227727 449.50293832 -123.18002319 439.14044189 C-123.52661987 438.55569092 -123.87321655 437.97093994 -124.23031616 437.36846924 C-139.15366328 411.83265263 -143.96888288 384.22270078 -143.82699585 354.93341064 C-143.83379502 352.5269607 -143.84271086 350.12051597 -143.85354614 347.71408081 C-143.87607264 341.2594098 -143.86761464 334.80514453 -143.85165071 328.35046768 C-143.84267249 324.30057544 -143.84447118 320.25073325 -143.84910202 316.20083618 C-143.84986819 315.52315191 -143.85063435 314.84546765 -143.85142373 314.14724749 C-143.85302277 312.7694531 -143.85464384 311.39165874 -143.85628669 310.0138644 C-143.87045789 297.17115175 -143.8542884 284.32861914 -143.82728486 271.48593605 C-143.80495393 260.5272569 -143.80883651 249.56884283 -143.83187866 238.61016846 C-143.85879081 225.80542442 -143.86908541 213.00083715 -143.85381734 200.19606876 C-143.85222502 198.82406174 -143.85065316 197.45205468 -143.84910202 196.08004761 C-143.84833064 195.40544076 -143.84755927 194.73083391 -143.84676451 194.03578442 C-143.84249339 189.33985864 -143.8498857 184.64406472 -143.86149979 179.94815063 C-143.87611257 173.59803788 -143.86562045 167.2484178 -143.8370285 160.89835739 C-143.83050645 158.58998806 -143.83215941 156.2815761 -143.84334183 153.97322464 C-144.02984188 111.50758545 -129.37532516 73.193066 -99.75082397 42.66778564 C-73.70742027 16.77431011 -36.88675524 -0.03468097 0 0 Z " fill="#00CBCB" transform="translate(143.18002319335938,-0.14044189453125)"/>
<path d="M0 0 C4.56911417 3.88657189 9.08269499 7.82588515 13.53636169 11.84413147 C14.15487552 12.40181778 14.77338935 12.95950409 15.41064602 13.53408998 C17.46370822 15.38793525 19.51441619 17.24434716 21.56420898 19.10180664 C22.64715083 20.08295535 22.64715083 20.08295535 23.75197029 21.08392525 C38.10808257 34.10871389 52.22029148 47.38389687 66.24763393 60.76146793 C75.15519442 69.24558623 84.12417711 77.63365618 93.29760742 85.83032227 C159.3796419 145.00765366 159.3796419 145.00765366 161.96594584 182.26242006 C162.90708459 201.23354766 160.75147823 220.15940351 157.38734746 238.80302691 C156.97719862 241.1293258 156.59665793 243.45903827 156.22295952 245.79146004 C156.09432217 246.58957291 155.96568482 247.38768578 155.83314937 248.20998389 C155.59015611 249.72163283 155.34923618 251.23361735 155.11093527 252.7460131 C149.11130062 289.47707844 126.44422531 324.53911514 96.30029297 346.22265625 C92.30286916 348.9887868 88.18865377 351.535213 84 354 C83.41524902 354.34659668 82.83049805 354.69319336 82.22802734 355.05029297 C65.75048918 364.67990558 47.32485711 371.2202509 28.32545471 373.42674255 C24.34173978 373.92005362 20.45995594 374.70032472 16.53369141 375.54174805 C6.30109995 377.60676395 -3.97180576 378.86437405 -14.375 379.6875 C-15.32045559 379.76300457 -16.26591118 379.83850914 -17.24001694 379.91630173 C-42.90367777 381.71764279 -62.73165983 376.75487117 -82.32611084 359.79258728 C-93.23791146 350.12967087 -103.39768855 339.73480436 -113.3125 329.0625 C-114.06118929 328.25755639 -114.06118929 328.25755639 -114.82500362 327.4363513 C-126.20604408 315.17951302 -137.3013232 302.68973854 -148.00665855 289.83602428 C-148.6407596 289.07734712 -149.27486065 288.31866995 -149.92817688 287.53700256 C-150.47702703 286.87423341 -151.02587717 286.21146425 -151.59135914 285.52861118 C-152.94267742 283.88087777 -152.94267742 283.88087777 -155 283 C-155 282.34 -155 281.68 -155 281 C-155.8623526 280.62464111 -155.8623526 280.62464111 -156.74212646 280.24169922 C-159.315144 278.82668912 -161.04754911 277.20652697 -163.12597656 275.1328125 C-163.92650452 274.33858887 -164.72703247 273.54436523 -165.55181885 272.72607422 C-166.40612488 271.86771973 -167.26043091 271.00936523 -168.140625 270.125 C-169.02280701 269.24473145 -169.90498901 268.36446289 -170.81390381 267.45751953 C-173.15211439 265.12101752 -175.48538201 262.77970581 -177.81713867 260.43676758 C-179.72690749 258.52179237 -181.64404093 256.61427599 -183.56119156 254.70669556 C-185.8425236 252.43430977 -188.11624194 250.15433769 -190.390625 247.875 C-191.25302795 247.01664551 -192.11543091 246.15829102 -193.00396729 245.27392578 C-194.18584625 244.08259033 -194.18584625 244.08259033 -195.39160156 242.8671875 C-196.09013245 242.16706543 -196.78866333 241.46694336 -197.50836182 240.74560547 C-199 239 -199 239 -199 237 C-132.67 237 -66.34 237 2 237 C2 218.19 2 199.38 2 180 C-33.64 180 -69.28 180 -106 180 C-104.4032949 176.80658981 -102.9466996 174.46313123 -100.796875 171.68359375 C-100.15363281 170.84699219 -99.51039063 170.01039063 -98.84765625 169.1484375 C-98.15542969 168.25382813 -97.46320313 167.35921875 -96.75 166.4375 C-91.42741017 159.50953299 -86.15800892 152.55139842 -81 145.5 C-74.64454528 136.82308081 -68.13778489 128.26687483 -61.60546875 119.72265625 C-58.88400925 116.16264399 -56.18127105 112.59034961 -53.5 109 C-50.16065071 104.52845228 -46.78022743 100.08982355 -43.390625 95.65625 C-36.94973941 87.22982825 -30.5823086 78.75839016 -24.31665039 70.20092773 C-19.02008808 62.98509059 -13.59803261 55.86740567 -8.15234375 48.76367188 C-7.50910156 47.92384766 -6.86585938 47.08402344 -6.203125 46.21875 C-5.63239258 45.47560547 -5.06166016 44.73246094 -4.47363281 43.96679688 C-0.94743062 39.26052039 -0.66489346 35.90098338 -0.5859375 30.17578125 C-0.56657135 29.31438034 -0.5472052 28.45297943 -0.5272522 27.56547546 C-0.4674797 24.81458432 -0.42108052 22.06365127 -0.375 19.3125 C-0.33681806 17.44724739 -0.2977662 15.58201237 -0.2578125 13.71679688 C-0.1617801 9.14467414 -0.0777405 4.57246886 0 0 Z " fill="#00A8A8" transform="translate(355,138)"/>
<path d="M0 0 C64.02 0 128.04 0 194 0 C194 45.33870968 194 45.33870968 184.125 55.890625 C183.10792969 56.87772461 183.10792969 56.87772461 182.0703125 57.88476562 C178.2892702 61.74784941 175.20990173 66.16236897 172 70.5 C170.65084149 72.26876336 169.2992932 74.03570653 167.9453125 75.80078125 C164.19653028 80.72071453 160.52665712 85.69525705 156.875 90.6875 C151.78837407 97.63845489 146.56002815 104.46032026 141.24511719 111.23779297 C136.50641149 117.30043232 131.93325877 123.47328137 127.390625 129.68359375 C122.99768828 135.67751186 118.5175977 141.59959719 114 147.5 C107.01141744 156.63023127 100.15821654 165.85370866 93.37182617 175.13500977 C91.92700868 177.0992313 90.46302392 179.04930144 89 181 C124.64 181 160.28 181 197 181 C197 199.81 197 218.62 197 238 C130.34 238 63.68 238 -5 238 C-5 191.56117725 -5 191.56117725 6.4921875 179.4609375 C7.2459668 178.73358398 7.99974609 178.00623047 8.77636719 177.25683594 C12.53975795 173.43725049 15.55731335 169.08989479 18.6875 164.75 C19.92865735 163.08452501 21.17339328 161.42171028 22.421875 159.76171875 C23.02193359 158.96169434 23.62199219 158.16166992 24.24023438 157.33740234 C28.54410691 151.62079917 32.90680404 145.94899518 37.26074219 140.27050781 C45.70069123 129.2526069 54.11273028 118.21416188 62.42211914 107.09741211 C66.58181716 101.53973123 70.78821622 96.01827406 75 90.5 C79.91620222 84.05687083 84.82182457 77.60640035 89.6875 71.125 C90.15607422 70.50173828 90.62464844 69.87847656 91.10742188 69.23632812 C94.13360132 65.19701728 97.06478935 61.10929492 100 57 C67 57 34 57 0 57 C0 38.19 0 19.38 0 0 Z " fill="#FEFEFE" transform="translate(160,137)"/>
<path d="M0 0 C33 0 66 0 100 0 C98.47236983 3.05526033 97.10741141 5.35108396 95.0859375 8.02734375 C94.4976416 8.80916016 93.9093457 9.59097656 93.30322266 10.39648438 C92.66690918 11.23501953 92.0305957 12.07355469 91.375 12.9375 C90.71419434 13.81341797 90.05338867 14.68933594 89.37255859 15.59179688 C83.80388714 22.96429345 78.20293017 30.31242041 72.59716797 37.65673828 C67.69600135 44.07832646 62.82762612 50.52293495 58 57 C54.1118231 55.41603239 51.48999515 52.76614842 48.58886719 49.83178711 C48.06159027 49.30640854 47.53431335 48.78102997 46.99105835 48.23973083 C45.25474373 46.50711218 43.52571885 44.76741446 41.796875 43.02734375 C40.59226341 41.82153995 39.3872818 40.61610568 38.1819458 39.411026 C35.66050311 36.88802066 33.14245241 34.36169452 30.62695312 31.83276367 C27.39477695 28.58355242 24.1560111 25.34100871 20.91492844 22.10068417 C18.42860858 19.61409314 15.94489772 17.12491031 13.46207428 14.63482857 C12.26810335 13.43766593 11.07351735 12.2411164 9.87831879 11.04517937 C8.21419201 9.37889691 6.55339271 7.70937155 4.89355469 6.03881836 C4.39489899 5.54061584 3.89624329 5.04241333 3.38247681 4.52911377 C0 1.1144775 0 1.1144775 0 0 Z " fill="#037474" transform="translate(160,194)"/>
</svg>
